<?xml version="1.0" standalone="no"?>
<!DOCTYPE svg PUBLIC "-//W3C//DTD SVG 20010904//EN"
 "http://www.w3.org/TR/2001/REC-SVG-20010904/DTD/svg10.dtd">
<svg version="1.0" xmlns="http://www.w3.org/2000/svg"
 width="273.000000pt" height="42.000000pt" viewBox="0 0 273.000000 42.000000"
 preserveAspectRatio="xMidYMid meet">

<g transform="translate(0.000000,42.000000) scale(0.100000,-0.100000)"
fill="#000000" stroke="none">
<path d="M0 210 l0 -210 620 0 620 0 0 210 0 210 -620 0 -620 0 0 -210z m1140
-5 c0 -108 -1 -115 -20 -115 -19 0 -20 7 -20 115 0 108 1 115 20 115 19 0 20
-7 20 -115z m-232 88 c5 -17 -26 -29 -40 -15 -6 6 -7 15 -3 22 9 14 37 9 43
-7z m-808 -98 c0 -98 -1 -105 -20 -105 -19 0 -20 7 -20 105 0 98 1 105 20 105
19 0 20 -7 20 -105z m167 33 c7 -6 18 -5 31 3 27 17 68 4 76 -23 3 -13 6 -44
6 -70 0 -41 -3 -48 -20 -48 -18 0 -20 7 -20 55 0 40 -4 57 -15 61 -27 11 -45
-16 -45 -67 0 -42 -3 -49 -20 -49 -16 0 -19 8 -22 58 -3 49 -6 57 -23 57 -17
0 -20 -8 -23 -57 -3 -50 -6 -58 -22 -58 -18 0 -20 7 -20 74 l0 74 53 0 c28 0
57 -4 64 -10z m183 0 c0 -9 3 -9 12 0 17 17 58 15 80 -5 22 -20 24 -80 2 -111
-17 -24 -62 -30 -82 -10 -9 9 -12 2 -12 -35 0 -40 -3 -47 -20 -47 -19 0 -20 7
-20 110 0 103 1 110 20 110 11 0 20 -5 20 -12z m253 -1 c10 -6 19 -26 20 -42
2 -29 1 -30 -46 -33 -61 -4 -59 -27 2 -26 26 0 41 -4 41 -12 0 -28 -83 -33
-112 -7 -25 23 -24 87 2 113 23 23 68 26 93 7z m87 1 c0 -9 3 -9 12 0 17 17
48 15 48 -3 0 -8 -9 -15 -20 -15 -25 0 -40 -29 -40 -79 0 -34 -3 -41 -20 -41
-18 0 -20 7 -20 75 0 68 2 75 20 75 11 0 20 -5 20 -12z m110 -63 c0 -60 -3
-75 -15 -75 -12 0 -15 15 -15 75 0 60 3 75 15 75 12 0 15 -15 15 -75z m148 63
c7 -7 12 -39 12 -75 0 -49 -3 -63 -15 -63 -8 0 -15 5 -15 12 0 9 -3 9 -12 0
-19 -19 -66 -15 -78 8 -17 31 4 59 50 66 29 5 37 10 33 21 -4 11 -15 14 -39
10 -25 -4 -34 -2 -34 8 0 7 6 16 13 18 23 10 73 7 85 -5z"/>
<path d="M462 198 c-15 -15 -15 -51 0 -66 20 -20 48 -14 58 14 18 47 -25 85
-58 52z"/>
<path d="M637 204 c-15 -15 -6 -24 24 -24 20 0 29 4 27 13 -5 14 -40 21 -51
11z"/>
<path d="M970 135 c0 -9 9 -15 24 -15 13 0 26 7 30 15 4 11 -2 15 -24 15 -20
0 -30 -5 -30 -15z"/>
<path d="M2374 299 c-10 -17 13 -36 27 -22 12 12 4 33 -11 33 -5 0 -12 -5 -16
-11z"/>
<path d="M1350 195 c0 -87 3 -105 15 -105 10 0 15 11 15 35 0 29 4 35 21 35
23 0 60 18 71 34 4 6 8 25 8 43 0 41 -30 63 -87 63 l-43 0 0 -105z m94 53 c15
-25 -3 -52 -38 -56 -24 -3 -26 -1 -26 38 0 39 2 41 26 38 15 -2 32 -11 38 -20z"/>
<path d="M2283 273 c-7 -3 -13 -11 -13 -19 0 -8 -4 -14 -10 -14 -5 0 -10 -7
-10 -15 0 -8 5 -15 10 -15 6 0 10 -22 10 -48 0 -26 5 -53 12 -60 17 -17 58
-15 58 3 0 8 -6 15 -14 15 -17 0 -26 22 -26 61 0 22 5 29 20 29 11 0 20 7 20
15 0 8 -9 15 -19 15 -11 0 -21 8 -23 18 -2 11 -9 17 -15 15z"/>
<path d="M1520 165 c0 -59 3 -75 14 -75 11 0 16 15 18 53 2 43 7 54 26 62 24
10 30 35 9 35 -7 0 -18 -5 -25 -12 -9 -9 -12 -9 -12 0 0 7 -7 12 -15 12 -12 0
-15 -15 -15 -75z"/>
<path d="M1655 228 c-28 -16 -35 -28 -35 -65 0 -68 77 -97 125 -48 14 13 25
36 25 50 0 14 -11 37 -25 50 -26 27 -58 31 -90 13z m76 -39 c16 -30 -3 -69
-34 -69 -29 0 -47 17 -47 45 0 45 60 63 81 24z"/>
<path d="M1800 130 c0 -103 1 -110 20 -110 17 0 20 7 20 47 0 37 3 44 12 35
17 -17 52 -15 71 6 55 61 6 159 -62 122 -14 -7 -21 -7 -21 0 0 5 -9 10 -20 10
-19 0 -20 -7 -20 -110z m105 35 c0 -38 -2 -40 -30 -40 -26 0 -30 4 -33 28 -5
44 4 59 35 55 25 -3 28 -7 28 -43z"/>
<path d="M2002 220 c-45 -42 -16 -130 42 -130 64 0 75 27 14 32 -31 2 -44 8
-46 21 -3 14 4 17 47 17 47 0 51 2 51 23 0 52 -67 75 -108 37z m76 -27 c2 -9
-8 -13 -32 -13 -34 0 -44 8 -29 24 11 11 56 2 61 -11z"/>
<path d="M2140 165 c0 -68 2 -75 20 -75 16 0 19 8 22 58 3 50 6 57 26 60 12 2
22 10 22 18 0 17 -22 18 -38 2 -9 -9 -12 -9 -12 0 0 7 -9 12 -20 12 -18 0 -20
-7 -20 -75z"/>
<path d="M2370 165 c0 -68 2 -75 20 -75 18 0 20 7 20 75 0 68 -2 75 -20 75
-18 0 -20 -7 -20 -75z"/>
<path d="M2465 215 c-30 -30 -32 -64 -4 -99 20 -26 57 -34 93 -20 29 11 17 23
-26 26 -31 2 -44 8 -46 21 -3 14 4 17 47 17 44 0 51 3 51 20 0 28 -35 60 -65
60 -14 0 -37 -11 -50 -25z m79 -20 c4 -12 -3 -15 -29 -15 -33 0 -43 8 -28 23
12 13 51 7 57 -8z"/>
<path d="M2620 222 c-29 -24 -21 -49 20 -65 42 -16 39 -37 -6 -37 -24 0 -34
-4 -32 -12 7 -21 62 -21 88 0 29 24 21 49 -20 65 -40 15 -39 37 1 37 20 0 29
4 27 13 -7 20 -53 20 -78 -1z"/>
</g>
</svg>
